<?xml version="1.0" standalone="no"?>
<!DOCTYPE svg PUBLIC "-//W3C//DTD SVG 20010904//EN"
 "http://www.w3.org/TR/2001/REC-SVG-20010904/DTD/svg10.dtd">
<svg version="1.0" xmlns="http://www.w3.org/2000/svg"
 width="683.000000pt" height="683.000000pt" viewBox="0 0 683.000000 683.000000"
 preserveAspectRatio="xMidYMid meet">
<metadata>
Created by potrace 1.14, written by Peter Selinger 2001-2017
</metadata>
<g transform="translate(0.000000,683.000000) scale(0.100000,-0.100000)"
fill="#000000" stroke="none">
<path d="M1735 6449 c-175 -22 -191 -25 -324 -60 -214 -56 -396 -139 -587
-268 -149 -99 -260 -189 -346 -278 -74 -77 -208 -251 -208 -270 0 -7 -4 -13
-8 -13 -18 0 -137 -265 -157 -350 -2 -8 -10 -35 -18 -60 -9 -25 -23 -81 -32
-125 -36 -167 -40 -213 -39 -400 0 -93 4 -188 8 -210 16 -85 46 -204 57 -231
33 -82 44 -106 82 -181 22 -46 44 -83 49 -83 4 0 8 -5 8 -11 0 -13 65 -94 134
-168 195 -205 499 -361 916 -470 112 -29 292 -67 357 -76 18 -2 60 -9 93 -15
33 -6 64 -8 69 -5 6 3 12 1 15 -3 5 -8 76 -15 183 -16 29 -1 53 -4 53 -8 0
-10 731 -7 758 3 14 5 22 5 22 -2 0 -6 4 -8 8 -5 5 3 55 8 113 11 57 3 120 8
139 11 19 2 64 7 100 10 36 3 76 6 90 8 36 5 121 17 150 22 14 2 41 7 60 10
19 3 42 8 50 11 8 3 24 8 35 10 138 24 246 98 259 175 12 78 -116 122 -424
143 -131 10 -187 18 -247 36 -188 58 -167 172 54 290 38 20 86 42 108 49 22 7
46 17 53 23 6 5 12 7 12 4 0 -4 17 0 38 7 129 46 414 61 560 31 9 -2 53 -11
97 -20 44 -9 91 -20 105 -25 92 -32 404 -130 445 -140 154 -36 282 15 270 108
-7 52 -53 121 -110 164 -75 56 -415 223 -539 264 -162 53 -251 75 -441 109
-148 25 -431 26 -590 1 -135 -22 -290 -61 -455 -117 -249 -83 -324 -104 -482
-135 -72 -14 -263 -10 -347 8 -212 45 -425 151 -539 268 -49 50 -132 163 -132
178 0 5 -9 26 -19 48 -26 54 -40 134 -38 222 1 42 -2 72 -8 72 -6 0 -6 3 1 8
5 4 16 38 22 75 7 38 17 76 22 85 5 9 16 37 25 62 9 25 30 67 46 93 16 26 26
53 23 59 -4 6 -3 8 3 5 6 -4 22 10 35 31 49 73 183 192 268 238 19 10 38 24
42 29 4 6 8 7 8 2 0 -4 17 1 38 11 37 19 145 51 192 58 39 5 182 5 215 -1 17
-3 41 -8 55 -11 14 -3 35 -8 48 -10 32 -6 172 -62 200 -80 13 -9 30 -13 38
-10 8 3 12 2 9 -4 -3 -5 9 -17 27 -26 31 -16 207 -132 218 -144 9 -10 204
-156 258 -193 28 -21 74 -53 102 -72 27 -19 56 -35 64 -35 8 0 16 -5 18 -11 2
-5 10 -11 18 -12 8 -2 20 -6 27 -10 64 -40 283 -58 388 -31 33 8 65 16 70 18
6 2 13 4 18 5 4 0 20 7 36 15 16 9 31 13 33 10 3 -2 11 2 18 11 7 8 21 15 30
15 10 0 20 3 22 8 2 4 33 23 71 42 37 19 67 38 67 42 0 5 5 8 11 8 6 0 47 25
91 55 44 30 82 55 84 55 3 0 15 9 27 21 12 12 29 24 37 28 8 3 67 40 130 82
217 143 369 213 551 254 122 27 325 22 432 -10 26 -8 48 -14 50 -14 1 0 9 -2
17 -5 8 -3 38 -12 65 -21 123 -40 358 -174 440 -252 120 -113 265 -344 316
-503 28 -86 58 -222 65 -290 4 -30 9 -62 13 -70 8 -16 6 -459 -2 -500 -3 -14
-8 -52 -12 -85 -5 -53 -24 -170 -41 -260 -56 -302 -171 -669 -349 -1120 -81
-204 -94 -250 -90 -312 2 -38 9 -53 34 -75 44 -40 124 -42 177 -6 26 18 100
124 159 226 6 9 31 52 58 95 26 43 47 80 47 82 0 3 14 27 31 55 17 28 27 55
23 62 -4 7 -3 10 1 5 11 -10 88 141 81 160 -3 8 -1 11 4 8 5 -3 16 9 23 27 8
18 24 53 35 78 51 111 81 193 75 203 -3 5 -2 7 3 4 11 -6 107 260 98 274 -3 5
-1 9 5 9 6 0 13 17 18 38 9 45 8 44 16 62 15 37 76 313 93 420 3 19 9 62 14
95 29 188 32 577 5 714 -2 11 -7 41 -11 68 -8 60 -10 68 -23 123 -7 25 -14 56
-17 70 -8 39 -64 200 -86 250 -122 274 -265 460 -520 676 -219 184 -431 290
-683 340 -130 26 -442 25 -558 -1 -12 -3 -33 -7 -47 -9 -242 -40 -589 -182
-886 -362 -236 -143 -354 -192 -480 -198 -153 -9 -246 35 -529 248 -149 112
-265 186 -373 237 -45 21 -84 39 -87 39 -2 0 -16 5 -32 12 -33 13 -28 11 -118
38 -38 11 -108 28 -155 36 -94 18 -371 25 -465 13z"/>
<path d="M3864 3982 c3 -5 50 -29 103 -52 54 -23 132 -58 173 -78 41 -19 121
-56 177 -83 264 -124 401 -138 487 -51 20 19 35 36 34 38 -2 1 -43 5 -93 8
-167 10 -245 30 -485 126 -80 32 -174 65 -210 73 -87 21 -194 32 -186 19z"/>
<path d="M3680 3867 c0 -25 -21 -37 -67 -37 -13 0 -23 -4 -23 -8 0 -5 128 -64
286 -131 l285 -123 38 41 c38 41 39 41 97 37 l59 -5 -66 23 c-37 13 -127 50
-200 81 -74 31 -143 61 -154 66 -18 7 -172 56 -232 74 -19 5 -23 3 -23 -18z"/>
<path d="M3138 3095 c-2 -2 -30 -5 -63 -6 -77 -3 -168 -26 -192 -48 -10 -9
-22 -17 -27 -17 -13 1 -48 -49 -52 -76 -2 -12 -7 -38 -10 -56 -11 -59 48 -110
146 -127 19 -3 49 -10 65 -15 28 -8 201 -31 340 -45 153 -15 173 -23 206 -75
15 -23 15 -30 2 -70 -9 -25 -20 -48 -25 -51 -6 -4 -7 -12 -3 -19 5 -9 4 -11
-3 -6 -7 4 -23 -3 -36 -16 -39 -36 -48 -42 -106 -70 -94 -46 -241 -94 -319
-104 -20 -3 -88 -8 -152 -11 -110 -5 -118 -4 -147 17 -32 24 -515 230 -661
282 -147 53 -265 32 -312 -53 -7 -15 -2 -17 42 -15 68 3 232 -18 294 -39 103
-33 315 -119 315 -127 0 -4 -8 -4 -17 1 -27 15 -286 97 -378 120 -44 11 -102
22 -130 24 -65 6 -145 -15 -167 -43 -23 -28 -24 -129 -3 -170 13 -24 93 -100
107 -100 2 0 52 -27 111 -59 225 -126 505 -231 732 -277 204 -41 297 -49 530
-48 242 2 308 16 553 119 271 115 371 144 487 145 67 0 163 -22 199 -45 52
-34 64 -188 25 -314 -15 -48 -81 -192 -97 -211 -7 -8 -12 -19 -11 -24 0 -5 -3
-12 -8 -15 -4 -3 -37 -42 -72 -86 -36 -44 -68 -81 -72 -83 -4 -2 -16 -11 -27
-20 -42 -36 -89 -73 -130 -103 -23 -17 -39 -36 -35 -41 3 -7 1 -8 -6 -4 -6 4
-32 -7 -59 -26 -109 -79 -248 -128 -380 -134 -40 -1 -77 -6 -82 -9 -6 -3 -10
-1 -10 5 0 6 -3 9 -7 7 -14 -9 -165 22 -261 54 -53 17 -134 48 -180 70 -46 21
-85 39 -87 39 -10 0 -293 161 -438 250 -139 85 -173 105 -225 131 -23 12 -45
25 -48 30 -3 5 -14 9 -24 9 -10 0 -20 4 -22 8 -3 7 -42 30 -247 139 -62 33
-67 20 -35 -87 16 -54 75 -155 137 -235 124 -159 443 -438 792 -692 516 -375
868 -399 1330 -90 294 196 529 415 695 647 34 48 142 211 158 239 43 75 86
153 87 161 0 3 8 19 17 36 22 41 58 133 64 164 3 14 9 42 13 62 16 69 6 218
-24 364 -31 152 -77 237 -190 349 -55 56 -155 126 -168 118 -5 -3 -7 -1 -4 4
6 9 -78 61 -143 89 -14 5 -50 21 -80 35 -75 35 -305 113 -365 124 -11 2 -20 4
-20 5 0 2 -1 2 -105 25 -105 23 -108 24 -170 35 -53 9 -129 20 -180 25 -14 2
-45 6 -70 9 -100 14 -552 31 -562 21z"/>
<path d="M2507 2652 c7 -62 -8 -70 -74 -41 -63 28 -141 49 -178 48 -28 0 -28
-1 10 -13 22 -7 76 -30 120 -51 185 -87 260 -119 320 -138 92 -28 131 -28 85
1 -11 7 -20 23 -20 36 0 29 32 40 78 26 18 -5 32 -6 32 -4 0 5 -147 76 -280
136 -25 11 -57 27 -72 34 l-27 14 6 -48z"/>
</g>
</svg>
