<svg version="1.1" id="Layer_1" xmlns="http://www.w3.org/2000/svg" xmlns:xlink="http://www.w3.org/1999/xlink" x="0px" y="0px"
	 viewBox="0 0 681.5 608.7" style="enable-background:new 0 0 681.5 608.7;" xml:space="preserve">
<style type="text/css">
	.st0{fill-rule:evenodd;clip-rule:evenodd;fill:#EBECEC;fill-opacity:0.949;}
	.st1{fill-rule:evenodd;clip-rule:evenodd;fill:url(#SVGID_1_);}
	.st2{fill-rule:evenodd;clip-rule:evenodd;fill:url(#SVGID_00000088099920319800689420000006600365608812413356_);}
	.st3{fill-rule:evenodd;clip-rule:evenodd;fill:url(#SVGID_00000066500570725613000280000003171570840096604801_);}
	.st4{fill-rule:evenodd;clip-rule:evenodd;fill:url(#SVGID_00000150086929519944356670000006605160161493493166_);}
	.st5{fill-rule:evenodd;clip-rule:evenodd;fill:url(#SVGID_00000088842526714189127770000007372110342963900302_);}
	.st6{fill-rule:evenodd;clip-rule:evenodd;fill:url(#SVGID_00000062881775629248654420000017326262074860338354_);}
</style>
<g id="Слой_x0020_1">
	<g id="_1083907072">
		<path class="st0" d="M300.2,337.4c71-7.4,200,15.3,216.5,74.8c4.7,20.7,8.2,38.6,0.4,58c-9.1,22.4-23.3,43.8-38,62.9
			c-14.8,19.2-38.1,36.8-58.4,50c-22,14.2-46.3,23.3-72.8,20.3c-31.4-3.6-59.7-23.5-84.2-42.2c-9.1-6.9-18.1-14.1-27-21.4
			c-7.2-5.9-26.5-22.8-30.6-29.8c-12.3-14.1-20-35.8-14.8-34.5c1.4,0.3,22.1,11.8,33.2,17.6c11.1,5.9,21.9,12.7,32.7,19.3
			c12.1,7.3,24.2,14.5,36.8,20.8c20.1,10.1,45.1,19.8,68,17.3c24.6-2.7,41.5-18.1,60.1-32.8c12.2-12.9,23.6-29.5,27.3-47.1
			c2-9.4,2-21.4-4.9-28.9c-9.9-10.7-28.9-6.7-40.7-2.4c-11,4-21.5,9.1-32.4,13.4c-17.3,6.8-33,9.3-51.6,9.3
			c-43.6,0-91-12.5-129-33.8c-16-9-24.4-21.7-14.9-29.3c29.3-14.1,86.5,40.6,157.3,9.2c17-6.9,54.5-35.4-39-44.7
			C271.6,360.9,275.5,340.5,300.2,337.4L300.2,337.4z"/>
		<path class="st0" d="M179.1,328.8c-68.4-9.7-135.7-29.8-164.1-83.7C-6.1,205.1-2.7,160,11.6,118.3C33.8,53.9,96.9,14.3,162.1,5.4
			c47.6-6.5,90.1,2.8,129.1,30.9c9.1,6.6,17.9,13.6,27.1,20c5.7,4,12.3,8.1,19.2,9.8c15.4,3.9,33.3-6.3,45.8-14.1
			c42.8-26.7,93.9-47.9,145.2-44.5c36,2.4,67.5,16.7,94.3,40.6c83.2,74.3,65,200,24.3,291.6l-0.1,0.2c-6.5,13.9-13.1,27.9-20.8,41.3
			c-3.9,6.8-8,13.5-12.2,20.2c-1.5,2.4-3,4.8-4.5,7.3c-1.3,2.1-2.7,4.3-4.1,6.3c-0.7,1-1.5,2-2.3,3c-3.5,3.9-8.6,6-13.9,4.7
			c-3.9-0.8-5.9-1.6-7.9-3.9c-2.7-4-2.6-6.7-2.1-10.6c0.9-7.2,6-18.9,8.7-25.9c5.6-14.2,11-28.4,16-42.8
			c13-37.9,23.4-78.4,25.4-118.5c1.2-24.3-0.8-49.2-8.2-72.5c-5.7-17.8-23.7-46.5-39.5-56.8C538.1,63.2,499,56.7,452.4,82
			c-17.6,9.6-33.5,21.8-50.2,32.8c-16,10.5-33.8,20.6-53.3,21.8c-15.2,1-29-3.6-41.6-12c-30.6-20.4-59.9-51.3-98.3-54.9
			c-21.5-2-42,5.1-58.4,18.9c-15.8,13.2-27.1,32.1-30.5,52.4c-1.4,8.2-1.4,16.6,0.1,24.8c3.7,20.7,23.9,41.1,41.9,50.7
			c21.5,11.5,41.4,16.2,65.6,11.8c12.1-2.2,23.9-6.2,35.5-10.1c14.1-4.7,27.9-9.2,42.5-12.3c42.3-8.9,81.7-3.9,122.4,9.7
			c13.1,4.4,27.1,10.8,39,17.8c2.8,1.6,5.6,3,8.5,4.6c15.2,8.2,15.3,19.4,9.9,23.6c-23.6,17.5-67.6-27.2-133.5-15.3
			c-24.4,4.4-63.2,22.6-46.7,36.1c12.8,10.5,81.6,14.6,71.7,29.6C364,331.7,227.9,335.2,179.1,328.8L179.1,328.8z"/>
		<linearGradient id="SVGID_1_" gradientUnits="userSpaceOnUse" x1="14.0758" y1="196.642" x2="669.2082" y2="196.642">
			<stop  offset="0" style="stop-color:#43BCED"/>
			<stop  offset="1.243237e-02" style="stop-color:#50ACE1"/>
			<stop  offset="3.930481e-02" style="stop-color:#678ECB"/>
			<stop  offset="6.783177e-02" style="stop-color:#7877BA"/>
			<stop  offset="9.841256e-02" style="stop-color:#8567AE"/>
			<stop  offset="0.1325" style="stop-color:#8D5DA7"/>
			<stop  offset="0.1771" style="stop-color:#8F5AA5"/>
			<stop  offset="0.3674" style="stop-color:#EB388F"/>
			<stop  offset="0.9987" style="stop-color:#F3BC31"/>
		</linearGradient>
		<path class="st1" d="M381.4,300.6c-16.2-16.1-80.8-4.3-90.9-24.5c-11.4-26.9,63.9-40.9,86.9-40.8c50,0.3,74.5,29.6,105.9,22.5
			c0.7-0.2,2.2-0.7,2.3-1c3.8-16.6-13-21.8-24.4-28.5c-10.2-6-24.3-12.6-36.5-16.7c-143.2-48-172.9,50.9-268.2-0.1
			c-21.7-11.6-44.3-35.2-48.7-60.1C97.7,94.4,148.4,34.1,211,39.9c42.7,3.9,71.9,35.4,104.5,57.1C394.6,149.6,446-30.2,590,64.1
			c18.3,12,38.2,43.1,44.8,63.8c34.5,107.9-39.2,247.8-41.4,265.3c1,0.3,7.9-11.4,10.4-15.4c12.8-20.6,17.7-29.2,32.2-60.1
			c40.7-91.7,54.8-208.6-21-276.4c-68.8-61.5-153.2-38.8-223.7,5.2c-53,33.1-66.7,12.6-106.9-16.2C249.6,5.3,211-4.4,164.8,1.9
			C104.6,10.1,45.5,46.4,25,105.9c-37.9,110,26,176.9,141.1,202.4c62.5,13.8,107.8,4.6,171.3,6.5
			C357.4,315.5,381.2,321.7,381.4,300.6L381.4,300.6z"/>
		
			<linearGradient id="SVGID_00000020388391109971045050000014389574625047485841_" gradientUnits="userSpaceOnUse" x1="357.1575" y1="272.8284" x2="433.932" y2="272.8284">
			<stop  offset="0" style="stop-color:#43BCED"/>
			<stop  offset="0.1826" style="stop-color:#8F5AA5"/>
			<stop  offset="0.5295" style="stop-color:#EB388F"/>
			<stop  offset="0.9987" style="stop-color:#F3BC31"/>
		</linearGradient>
		<path style="fill-rule:evenodd;clip-rule:evenodd;fill:url(#SVGID_00000020388391109971045050000014389574625047485841_);" d="
			M357.2,263.8l56.1,24.1c5.6,2.6,1.7-4.4,10.1-7.2c2.4-0.5,11.1,1.4,10.5,0.4c-15.8-3.9-32.2-14.2-55.8-21.1
			c-17-5.1-8.4-2.8-11.6,1.6C365.7,262.8,359.6,262.5,357.2,263.8L357.2,263.8z"/>
		
			<linearGradient id="SVGID_00000070111966789154847490000010951066980426118031_" gradientUnits="userSpaceOnUse" x1="384.9111" y1="263.215" x2="482.6641" y2="263.215">
			<stop  offset="0" style="stop-color:#43BCED"/>
			<stop  offset="0.1826" style="stop-color:#8F5AA5"/>
			<stop  offset="0.5295" style="stop-color:#EB388F"/>
			<stop  offset="0.9987" style="stop-color:#F3BC31"/>
		</linearGradient>
		<path style="fill-rule:evenodd;clip-rule:evenodd;fill:url(#SVGID_00000070111966789154847490000010951066980426118031_);" d="
			M482.7,269.5c-45.1,2-61.2-22.1-97.5-22.5c-2.6,0.4,15.7,7.5,23.9,11.3C437.6,271.4,470.5,291.8,482.7,269.5L482.7,269.5z"/>
		<g>
			
				<linearGradient id="SVGID_00000125595630897106043100000008084582914412253599_" gradientUnits="userSpaceOnUse" x1="172.0236" y1="477.6854" x2="513.1119" y2="477.6854">
				<stop  offset="0" style="stop-color:#43BCED"/>
				<stop  offset="0.1826" style="stop-color:#8F5AA5"/>
				<stop  offset="0.5295" style="stop-color:#EB388F"/>
				<stop  offset="0.9987" style="stop-color:#F3BC31"/>
			</linearGradient>
			<path style="fill-rule:evenodd;clip-rule:evenodd;fill:url(#SVGID_00000125595630897106043100000008084582914412253599_);" d="
				M173.7,407c-0.8,0.4-1.6,1.5-1.6,2.4c-0.7,12.7,8.8,15.9,25.3,25.1c35.1,19.7,80.2,32.2,122.5,32.1c37.9,0,50.1-11.2,79.5-21.9
				c67.2-24.5,88.7,41.3,31.8,100.6c-21.1,16.6-39.1,33-67.6,36.1c-51.2,5.6-108.8-39.5-145.2-58.8c2.7,6.2,42.9,37.9,53.4,46
				c49.7,37.9,87.1,56.6,141.8,21.3c18.5-12,41.5-29.2,55.1-46.9c58-75.3,71.4-141.4-33.6-179.8c-21.2-7.7-60.5-15.9-86.4-15.9
				c-12.3,0-82.9-5.4-68.7,15.5c6.3,9.4,53.8,11.5,71.9,14.6c57,9.9-17,61.2-89,49.3C235.7,422.3,198.2,396.9,173.7,407L173.7,407z"
				/>
			
				<linearGradient id="SVGID_00000166664138437535883870000001113072467438329221_" gradientUnits="userSpaceOnUse" x1="177.1349" y1="400.7352" x2="276.5826" y2="400.7352">
				<stop  offset="0" style="stop-color:#43BCED"/>
				<stop  offset="0.1826" style="stop-color:#8F5AA5"/>
				<stop  offset="0.5295" style="stop-color:#EB388F"/>
				<stop  offset="0.9987" style="stop-color:#F3BC31"/>
			</linearGradient>
			<path style="fill-rule:evenodd;clip-rule:evenodd;fill:url(#SVGID_00000166664138437535883870000001113072467438329221_);" d="
				M177.1,394.3c43.1-2.6,57,19.4,96.6,22.4c0.7,0.1,2.8,0.5,2.9,0.1c-1.4-1.2-2.2-1.8-4.7-3.2l-44.2-18.3
				C212.4,388.7,187.5,375.2,177.1,394.3L177.1,394.3z"/>
			
				<linearGradient id="SVGID_00000049202572381377229460000006309513455642558599_" gradientUnits="userSpaceOnUse" x1="221.3627" y1="388.9563" x2="287.0191" y2="388.9563">
				<stop  offset="0" style="stop-color:#43BCED"/>
				<stop  offset="0.1826" style="stop-color:#8F5AA5"/>
				<stop  offset="0.5295" style="stop-color:#EB388F"/>
				<stop  offset="0.9987" style="stop-color:#F3BC31"/>
			</linearGradient>
			<path style="fill-rule:evenodd;clip-rule:evenodd;fill:url(#SVGID_00000049202572381377229460000006309513455642558599_);" d="
				M249.1,386.3c-1.9,1.4-9.8-2.9-14.4-4.5c-5.9-2-12.8-2.7-13.4-1.8c9.7,0.2,42.8,22,59.8,22c0.3-0.1-2.5-0.9-4-2.3
				c-1.7-1.5-2.1-3.7-1.2-5.6c2.9-3.4,11.1,0.8,11.1-0.4l-38.3-17.9C249.9,380.4,251.8,382.6,249.1,386.3L249.1,386.3z"/>
		</g>
	</g>
</g>
<g id="uHlgrT.tif">
	
		<image style="overflow:visible;" width="295" height="310" id="Layer_0_00000008110013440485828070000008048308527784620989_" xlink:href="11E3E84BB2A71851.png"  transform="matrix(1 0 0 1 918.5 388.9563)">
	</image>
</g>
</svg>
