<?xml version="1.0" encoding="utf-8"?>
<!-- Generator: Adobe Illustrator 25.4.1, SVG Export Plug-In . SVG Version: 6.00 Build 0)  -->
<svg version="1.1" xmlns="http://www.w3.org/2000/svg" xmlns:xlink="http://www.w3.org/1999/xlink" x="0px" y="0px"
	 viewBox="0 0 595.3 268.9" style="enable-background:new 0 0 595.3 268.9;" xml:space="preserve">
<style type="text/css">
	.st0{fill:#FFFFFF;}
	.st1{font-family:'HelveticaNeue-Bold';}
	.st2{font-size:126.4723px;}
	.st3{font-family:'Futura-Bold';}
	.st4{fill:#00A1DF;}
	.st5{font-size:70px;}
</style>
<g id="Layer_1">
</g>
<g id="Layer_2">
</g>
<g id="Layer_3">
	<text transform="matrix(1 0 0 1 150.2095 224.3636)" class="st0 st1 st2">2</text>
	<text transform="matrix(1 0 0 1 132.5752 212.3103)" class="st0 st3 st2">2</text>
	<circle class="st4" cx="191.4" cy="81.6" r="18.8"/>
	<circle class="st4" cx="220.6" cy="55.7" r="14.8"/>
	<circle class="st4" cx="184.2" cy="29.4" r="11.5"/>
	<text transform="matrix(1 0 0 1 220.6048 246.9339)" class="st4 st3 st5">NEXTGEN</text>
	<path class="st4" d="M163,136.4c0,40.6-32.9,73.5-73.5,73.5S16,177,16,136.4s32.9-73.5,73.5-73.5S163,95.8,163,136.4z M89.7,189
		c29.2,0,52.8-23.6,52.8-52.8s-23.6-52.8-52.8-52.8S36.9,107,36.9,136.2S60.6,189,89.7,189z"/>
	<path class="st0" d="M229.3,132.3c0,13.4-22.6,24.3-50.4,24.3s-50.4-10.9-50.4-24.3s22.6-24.3,50.4-24.3S229.3,118.9,229.3,132.3z"
		/>
	<g>
		<path class="st4" d="M139.6,151.9c1.7-4.3,4.3-8,7.6-11.2c3.3-3.2,7.5-5.6,12.5-7.3c5-1.7,10.7-2.5,17.1-2.3
			c4.9,0.1,9.5,0.9,13.9,2.2c4.4,1.4,8.3,3.3,11.6,5.7c3.3,2.4,5.9,5.4,7.8,8.9c1.9,3.5,2.8,7.4,2.7,11.7c-0.1,4.5-1.1,8.3-2.9,11.4
			c-1.8,3.2-4.2,6-7.1,8.4c-2.9,2.4-6.2,4.6-9.9,6.5c-3.7,1.9-7.4,3.8-11.1,5.7c-3.7,1.9-7.3,3.9-10.8,6.1c0,0-0.1,0-0.1,0.1
			c-3.6,2.3-2,7.9,2.3,8l34.7,0.8c2.4,0.1,4.3,2,4.2,4.4l-0.2,6.8c-0.1,2.4-2,4.3-4.4,4.2l-69.6-1.7c-2.6-0.1-4.6-2.4-4.2-5
			c0.5-3.1,1.3-5.9,2.6-8.4c1.9-3.7,4.4-7.1,7.5-10c3.1-2.9,6.8-5.6,11-8c4.2-2.4,8.6-4.9,13.2-7.4c2.4-1.3,4.9-2.6,7.6-3.9
			c2.7-1.3,5.1-2.8,7.4-4.4c2.2-1.6,4.1-3.5,5.6-5.6c1.5-2.1,2.3-4.5,2.4-7.2c0.1-4.3-1.3-7.7-4.3-10.2c-2.9-2.5-6.8-3.8-11.4-3.9
			c-3.2-0.1-5.8,0.5-8.1,1.6c-2.2,1.2-4,2.7-5.4,4.7c-1.4,1.9-2.4,4.1-3,6.5c-0.3,1.1-0.7,3.3-0.7,3.3s-2.2,3.8-4.4,3.7l-12.3-0.3
			c-2.5-0.1-4.5-2.2-4.2-4.7C137.6,158,138.4,154.9,139.6,151.9z"/>
	</g>
</g>
</svg>
