<?xml version="1.0" encoding="utf-8"?>
<!-- Generator: Adobe Illustrator 25.4.1, SVG Export Plug-In . SVG Version: 6.00 Build 0)  -->
<svg version="1.1" xmlns="http://www.w3.org/2000/svg" xmlns:xlink="http://www.w3.org/1999/xlink" x="0px" y="0px"
	 viewBox="0 0 595.28 841.89" style="enable-background:new 0 0 595.28 841.89;" xml:space="preserve">
<style type="text/css">
	.st0{fill:#FFFFFF;}
	.st1{font-family:'HelveticaNeue-Bold';}
	.st2{font-size:126.4723px;}
	.st3{font-family:'Futura-Bold';}
	.st4{fill:#00A1DF;}
	.st5{font-size:70px;}
</style>
<g id="Layer_1">
</g>
<g id="Layer_2">
</g>
<g id="Layer_3">
	<text transform="matrix(1 0 0 1 150.2095 378.0688)" class="st0 st1 st2">2</text>
	<text transform="matrix(1 0 0 1 132.5752 366.0155)" class="st0 st3 st2">2</text>
	<circle class="st4" cx="191.41" cy="235.33" r="18.75"/>
	<circle class="st4" cx="220.6" cy="209.39" r="14.75"/>
	<circle class="st4" cx="184.16" cy="183.14" r="11.5"/>
	<text transform="matrix(1 0 0 1 220.6048 400.6391)" class="st4 st3 st5">NEXTGEN</text>
	<path class="st4" d="M163.01,290.14c0,40.59-32.91,73.5-73.5,73.5s-73.5-32.91-73.5-73.5s32.91-73.5,73.5-73.5
		S163.01,249.55,163.01,290.14z M89.72,342.66c29.15,0,52.78-23.63,52.78-52.78c0-29.15-23.63-52.78-52.78-52.78
		s-52.78,23.63-52.78,52.78C36.93,319.03,60.57,342.66,89.72,342.66z"/>
	<path class="st0" d="M229.25,286.05c0,13.4-22.57,24.26-50.41,24.26s-50.41-10.86-50.41-24.26c0-13.4,22.57-24.26,50.41-24.26
		S229.25,272.65,229.25,286.05z"/>
	<g>
		<path class="st4" d="M139.58,305.59c1.73-4.3,4.27-8.03,7.61-11.2c3.34-3.17,7.5-5.59,12.48-7.29c4.98-1.69,10.68-2.46,17.1-2.3
			c4.89,0.12,9.53,0.86,13.93,2.24c4.4,1.37,8.25,3.28,11.55,5.72c3.3,2.44,5.91,5.42,7.81,8.92c1.9,3.51,2.8,7.41,2.7,11.7
			c-0.11,4.47-1.07,8.28-2.88,11.44c-1.81,3.16-4.17,5.95-7.08,8.37c-2.91,2.42-6.2,4.59-9.87,6.53c-3.67,1.93-7.35,3.85-11.07,5.74
			c-3.71,1.89-7.33,3.93-10.85,6.12c-0.04,0.02-0.07,0.04-0.11,0.07c-3.6,2.26-2,7.85,2.25,7.96l34.73,0.85
			c2.39,0.06,4.28,2.04,4.22,4.43l-0.16,6.77c-0.06,2.39-2.04,4.28-4.43,4.22l-69.6-1.69c-2.62-0.06-4.56-2.42-4.17-5.01
			c0.47-3.12,1.33-5.94,2.58-8.44c1.87-3.75,4.38-7.08,7.5-10c3.13-2.92,6.78-5.59,10.97-8.02c4.19-2.43,8.6-4.89,13.25-7.39
			c2.37-1.29,4.9-2.6,7.58-3.93c2.68-1.33,5.14-2.8,7.37-4.44c2.23-1.63,4.11-3.48,5.64-5.56c1.53-2.07,2.32-4.45,2.39-7.15
			c0.1-4.3-1.32-7.69-4.26-10.16c-2.95-2.48-6.76-3.77-11.45-3.88c-3.16-0.08-5.85,0.47-8.06,1.64c-2.22,1.17-4.02,2.73-5.39,4.68
			c-1.37,1.95-2.37,4.12-2.99,6.51c-0.29,1.11-0.68,3.31-0.68,3.31s-2.19,3.77-4.38,3.72l-12.33-0.3c-2.5-0.06-4.46-2.22-4.21-4.7
			C137.62,311.71,138.38,308.56,139.58,305.59z"/>
	</g>
</g>
</svg>
